<?xml version="1.0" encoding="UTF-8"?>
<svg version="1.1" xmlns="http://www.w3.org/2000/svg" width="48" height="48">
<path d="M0 0 C4.68796317 2.8950501 8.77605467 6.42344712 10.234375 11.89453125 C11.16656452 18.74158704 11.3930195 24.99387098 7.671875 31.01953125 C3.66347868 35.99068326 0.31000422 38.47580101 -6.0078125 39.3359375 C-13.1275177 39.69575056 -18.34453314 39.19135672 -23.98828125 34.640625 C-29.08369757 29.63479842 -30.03494232 26.05750776 -30.390625 19.01953125 C-30.17838344 12.13997715 -28.58962241 7.80486419 -23.765625 2.89453125 C-17.29271618 -2.6344117 -7.84970384 -3.13766411 0 0 Z " fill="#C6E5C7" transform="translate(33.765625,5.10546875)"/>
<path d="M0 0 C0.99 0.33 1.98 0.66 3 1 C1.67879172 3.93230193 0.25361803 5.98664899 -2.0390625 8.234375 C-2.90917969 9.09482422 -2.90917969 9.09482422 -3.796875 9.97265625 C-4.40015625 10.55917969 -5.0034375 11.14570313 -5.625 11.75 C-6.23601563 12.35199219 -6.84703125 12.95398438 -7.4765625 13.57421875 C-8.97988624 15.05405305 -10.48934856 16.52764676 -12 18 C-16.28359673 16.1144852 -18.15103592 13.64034299 -21 10 C-20.01 9.34 -19.02 8.68 -18 8 C-16.68 9.32 -15.36 10.64 -14 12 C-10.09714233 10.41332422 -7.66479018 7.86649519 -4.75 4.875 C-3.85796875 3.96492188 -2.9659375 3.05484375 -2.046875 2.1171875 C-1.37140625 1.41851563 -0.6959375 0.71984375 0 0 Z " fill="#4DAF51" transform="translate(34,15)"/>
</svg>
